<svg width="7" height="8" viewBox="0 0 7 8" fill="none" xmlns="http://www.w3.org/2000/svg">
<path fill-rule="evenodd" clip-rule="evenodd" d="M5.95837 4.74491H4.2455V6.47491C4.2455 6.88491 3.91877 7.21491 3.51283 7.21491C3.10689 7.21491 2.77025 6.88491 2.77025 6.47491V4.74491H1.06728C0.661341 4.74491 0.324707 4.41491 0.324707 4.00491C0.324707 3.58491 0.661341 3.25491 1.06728 3.25491H2.77025V1.52491C2.77025 1.11491 3.10689 0.784912 3.51283 0.784912C3.91877 0.784912 4.2455 1.11491 4.2455 1.52491V3.25491H5.95837C6.36431 3.25491 6.70094 3.58491 6.70094 4.00491C6.70094 4.41491 6.36431 4.74491 5.95837 4.74491Z" fill="#F67952"/>
</svg>
